<svg xmlns="http://www.w3.org/2000/svg" version="1.1" xmlns:xlink="http://www.w3.org/1999/xlink" xmlns:svgjs="http://svgjs.dev/svgjs" width="2000" height="656" viewBox="0 0 2000 656"><g transform="matrix(1,0,0,1,-1.2121212121213603,-1.2346702307321493)"><svg viewBox="0 0 396 130" data-background-color="#000000" preserveAspectRatio="xMidYMid meet" height="656" width="2000" xmlns="http://www.w3.org/2000/svg" xmlns:xlink="http://www.w3.org/1999/xlink"><g id="tight-bounds" transform="matrix(1,0,0,1,0.24000000000003752,0.24467550304143515)"><svg viewBox="0 0 395.5199999999999 129.51064899391716" height="129.51064899391716" width="395.5199999999999"><g><svg viewBox="0 0 641.430902018861 210.03269722192655" height="129.51064899391716" width="395.5199999999999"><g transform="matrix(1,0,0,1,0,29.027673783927625)"><svg viewBox="0 0 395.52 151.9773496540713" height="151.9773496540713" width="395.52"><g id="textblocktransform"><svg viewBox="0 0 395.52 151.9773496540713" height="151.9773496540713" width="395.52" id="textblock"><g><svg viewBox="0 0 395.52 151.9773496540713" height="151.9773496540713" width="395.52"><g transform="matrix(1,0,0,1,0,0)"><svg width="395.52" viewBox="1.6 -35.5 93.95 36.1" height="151.9773496540713" data-palette-color="#ffffff"><path d="M16.3 0.6L16.3 0.6Q11.85 0.6 8.55-1.63 5.25-3.85 3.43-7.9 1.6-11.95 1.6-17.45L1.6-17.45Q1.6-23 3.43-27.05 5.25-31.1 8.55-33.3 11.85-35.5 16.3-35.5L16.3-35.5Q20.75-35.5 24.05-33.3 27.35-31.1 29.18-27.05 31-23 31-17.45L31-17.45Q31-11.95 29.18-7.9 27.35-3.85 24.05-1.63 20.75 0.6 16.3 0.6ZM16.3-3.9L16.3-3.9Q19.05-3.9 21.1-5.55 23.15-7.2 24.3-10.25 25.45-13.3 25.45-17.45L25.45-17.45Q25.45-21.65 24.3-24.68 23.15-27.7 21.1-29.35 19.05-31 16.3-31L16.3-31Q13.6-31 11.53-29.35 9.45-27.7 8.3-24.65 7.15-21.6 7.15-17.45L7.15-17.45Q7.15-13.3 8.3-10.25 9.45-7.2 11.53-5.55 13.6-3.9 16.3-3.9ZM49.95 0L37.55 0 37.55-4.5 50-4.5Q52.4-4.5 53.65-5.93 54.9-7.35 54.9-9.8L54.9-9.8 54.9-34.9 60.2-34.9 60.2-10.05Q60.2-7.65 59.55-5.78 58.9-3.9 57.62-2.63 56.35-1.35 54.42-0.68 52.5 0 49.95 0L49.95 0ZM41.6-30.4L41.6-34.9 59.8-34.9 59.8-30.4 41.6-30.4ZM83.8 0L78.5 0 78.5-14.15 66.95-34.9 72.75-34.9 78.15-25.3 81.25-18.75 84.4-25.35 89.8-34.9 95.55-34.9 83.8-14.15 83.8 0Z" opacity="1" transform="matrix(1,0,0,1,0,0)" fill="#ffffff" class="wordmark-text-0" data-fill-palette-color="primary" id="text-0"></path></svg></g></svg></g></svg></g></svg></g><g transform="matrix(1,0,0,1,431.3982047969345,0)"><svg viewBox="0 0 210.03269722192655 210.03269722192655" height="210.03269722192655" width="210.03269722192655"><g data-palette-color="#3035f2"><rect width="57.408937240659924" height="210.03269722192655" fill="#3035f2" stroke="transparent" data-fill-palette-color="accent" x="0" fill-opacity="1"></rect><rect width="57.408937240659924" height="210.03269722192655" fill="#3035f2" stroke="transparent" data-fill-palette-color="accent" x="70.01089907397552" fill-opacity="0.75"></rect><rect width="57.408937240659924" height="210.03269722192655" fill="#3035f2" stroke="transparent" data-fill-palette-color="accent" x="140.02179814795105" fill-opacity="0.5"></rect></g></svg></g></svg></g><defs></defs></svg><rect width="395.5199999999999" height="129.51064899391716" fill="none" stroke="none" visibility="hidden"></rect></g></svg></g></svg>